<svg xmlns="http://www.w3.org/2000/svg" viewBox="0 0 750 500"><g id="freepik--Floor--inject-2"><line x1="699.4" y1="464.81" x2="715.64" y2="464.81" style="fill:none;stroke:#263238;stroke-miterlimit:10"></line><line x1="23.98" y1="464.81" x2="685.86" y2="464.81" style="fill:none;stroke:#263238;stroke-miterlimit:10"></line></g><g id="freepik--plants-2--inject-2"><g style="opacity:0.15"><path d="M154.1,386.17c-2.9,1.07-9.82.5-9.83.5s1.76-4.44,1.91-4.71c1.71-3.09,6.82-8.06,10.7-7.3a4.69,4.69,0,0,1,3.41,6.08C159.48,383.41,156.58,385.26,154.1,386.17Z"></path><path d="M156.25,395.73c-3.54-1.76-9.79,1.68-12.25,4.21-.18.18-2.16,2.75-2.84,3.68a.61.61,0,0,1,.05-.12,61.63,61.63,0,0,0,2.42-10.57,83.71,83.71,0,0,0,.8-9.67c.11-3,0-5.75-.08-8.18-.06-1.32-.14-2.53-.23-3.65l.06.05c.06,0,1.66-4.48,1.73-4.78.78-3.44.27-10.56-3.13-12.58a4.68,4.68,0,0,0-6.58,2.27c-1.18,2.53-.25,5.84,1,8.17s5.64,5.87,6.74,6.73c.07,1.16.13,2.41.16,3.8,0,2.43.08,5.17-.09,8.16-.05.79-.13,1.64-.19,2.47-.18-1.41-.47-3.36-.52-3.54-.89-3.42-4.61-9.5-8.56-9.73a4.69,4.69,0,0,0-4.8,5.05c.12,2.79,2.47,5.29,4.64,6.79s7.9,2.65,9.13,2.88c-.16,1.83-.37,3.71-.71,5.66a60.56,60.56,0,0,1-2.61,10.39c-.07.19-.17.38-.24.58,0-.72-.1-4.66-.14-4.94-.5-3.49-3.54-9.94-7.44-10.6a4.68,4.68,0,0,0-5.33,4.48c-.18,2.79,1.88,5.54,3.87,7.27,2.3,2,8.74,3.85,9,3.92a82.54,82.54,0,0,1-4.44,9.73c-1.24,2.33-2.59,4.64-4,6.95,0-.94-.1-4.6-.14-4.87-.51-3.49-3.55-9.94-7.44-10.6a4.68,4.68,0,0,0-5.33,4.48c-.19,2.79,1.88,5.54,3.87,7.27,2.24,1.94,8.4,3.76,8.92,3.91-.62,1-1.24,2.09-1.88,3.14-2.07,3.41-4.16,6.82-6.13,10.25-.68,1.18-1.3,2.38-1.94,3.57,0-1.4-.1-3.94-.13-4.16-.51-3.5-3.55-10-7.44-10.61a4.69,4.69,0,0,0-5.33,4.49c-.19,2.78,1.87,5.54,3.87,7.26s7.15,3.38,8.6,3.82c-1,2-2,4-2.9,6-.35.88-.78,1.76-1.07,2.62s-.64,1.71-.95,2.56c-.58,1.77-1.13,3.42-1.63,5.08-.26.84-.48,1.64-.72,2.46.19-1.42.46-3.68.46-3.89,0-3.53-2-10.37-5.75-11.61a4.68,4.68,0,0,0-5.94,3.63,5.09,5.09,0,0,0-.13,1,18.1,18.1,0,0,0-3,8.68c0,.22.2,2.9.33,4.27-.36-1.07-.72-2.14-1.08-3.26-.53-1.61-1-3.34-1.52-5l-.69-2.64c-.25-.9-.38-1.78-.58-2.68-.26-1.33-.47-2.71-.68-4.08,1.68-.44,6.57-1.81,8.57-3.39s4.24-4.3,4.18-7.09a4.68,4.68,0,0,0-5.13-4.71c-3.93.49-7.24,6.8-7.9,10.27,0,.11-.08.86-.15,1.75-.16-1.35-.33-2.7-.45-4.08-.33-3.89-.56-7.88-.8-11.87,0-.83-.11-1.66-.16-2.49,1.41-.36,6.72-1.79,8.82-3.45s4.24-4.3,4.18-7.09a4.67,4.67,0,0,0-5.13-4.71c-3.93.49-7.24,6.8-7.9,10.27,0,.12-.09,1-.17,2-.16-2.17-.35-4.33-.6-6.46a84,84,0,0,0-2-10.88c.5-.12,6.76-1.67,9.09-3.52,2.06-1.64,4.24-4.3,4.18-7.09a4.69,4.69,0,0,0-5.13-4.71c-3.93.49-7.24,6.8-7.9,10.27,0,.25-.29,3.48-.33,4.64l0-.13a60.75,60.75,0,0,0-3.82-10.16,83.63,83.63,0,0,0-4.66-8.5c-1.57-2.56-3.16-4.81-4.58-6.78-.78-1.07-1.51-2-2.21-2.91h.09c.07,0-1.1-4.65-1.21-4.94-1.24-3.3-5.59-9-9.54-8.76a4.67,4.67,0,0,0-4.24,5.52c.41,2.76,3,5,5.33,6.26s8,1.79,9.34,1.9c.7.94,1.44,1.94,2.23,3.08,1.38,2,2.92,4.27,4.42,6.86.4.68.81,1.44,1.21,2.16-.93-1.08-2.24-2.54-2.38-2.67C78,378,71.55,375,68.13,377a4.67,4.67,0,0,0-1.22,6.85c1.64,2.26,5,3.06,7.62,3.11s8-2.15,9.2-2.64c.87,1.62,1.73,3.3,2.53,5.11a61,61,0,0,1,3.55,10.11c0,.2.07.42.12.62-.37-.62-2.65-3.84-2.83-4.05-2.36-2.63-8.45-6.34-12.06-4.73a4.66,4.66,0,0,0-2,6.67c1.38,2.43,4.62,3.59,7.23,3.93,3,.39,9.42-1.6,9.66-1.68a84.31,84.31,0,0,1,1.66,10.56c.25,2.63.4,5.3.53,8-.51-.78-2.62-3.78-2.8-4-2.35-2.63-8.45-6.34-12.06-4.74a4.68,4.68,0,0,0-2,6.68c1.38,2.43,4.62,3.59,7.24,3.93,2.94.38,9.08-1.5,9.6-1.66,0,1.21.11,2.43.16,3.65.15,4,.29,8,.54,11.93.09,1.37.23,2.71.36,4.06-.79-1.16-2.26-3.24-2.41-3.41-2.35-2.63-8.45-6.34-12.06-4.73a4.68,4.68,0,0,0-2,6.68c1.38,2.42,4.62,3.58,7.24,3.92s7.82-1.13,9.28-1.57c.23,2.24.51,4.45.9,6.62.18.93.31,1.89.54,2.78l.63,2.66c.49,1.8.94,3.47,1.44,5.13.25.85.5,1.63.75,2.45-.62-1.29-1.64-3.33-1.76-3.5-1.92-3-7.38-7.55-11.2-6.51a4.68,4.68,0,0,0-3,6.3c1,2.61,4,4.25,6.56,5,2.8.81,8.94-.07,9.7-.18.47,1.53.95,3,1.43,4.43h2.46q-.81-2.21-1.62-4.6c.69-.28,6-2.54,8.17-4.61a49.37,49.37,0,0,0,5.25,2.86c-.58,2-1.13,4-1.6,5.81,0,.18-.09.36-.14.54h2.42c.39-1.67.83-3.43,1.31-5.23.76.15,6.85,1.28,9.67.6,2.56-.62,5.66-2.13,6.77-4.69a4.68,4.68,0,0,0-2.69-6.42c-3.76-1.2-9.42,3.14-11.47,6-.13.19-1.44,2.54-2.08,3.75.29-1.09.58-2.18.9-3.31.45-1.64,1-3.35,1.48-5,.3-.86.59-1.72.89-2.59s.66-1.69,1-2.55c.51-1.25,1.1-2.52,1.69-3.78,1.64.56,6.47,2.12,9,1.9s5.91-1.24,7.4-3.61a4.68,4.68,0,0,0-1.68-6.76c-3.54-1.75-9.79,1.69-12.25,4.22-.08.08-.55.67-1.09,1.37.61-1.21,1.21-2.43,1.87-3.64,1.87-3.44,3.88-6.89,5.88-10.35.42-.72.83-1.44,1.24-2.16,1.38.47,6.6,2.21,9.26,2s5.91-1.25,7.4-3.61a4.68,4.68,0,0,0-1.68-6.76c-3.54-1.75-9.79,1.69-12.25,4.22-.09.09-.64.79-1.26,1.58,1.06-1.89,2.1-3.79,3.06-5.71A82.71,82.71,0,0,0,141,404c.48.17,6.56,2.33,9.52,2.08,2.63-.23,5.91-1.25,7.4-3.61A4.69,4.69,0,0,0,156.25,395.73Z"></path><path d="M83.93,383.56c-.06,0-1-4.68-1-5-.28-3.52,1.25-10.49,4.9-12A4.67,4.67,0,0,1,94,369.78c.8,2.67-.6,5.81-2.16,7.94C90,380.21,83.94,383.56,83.93,383.56Z"></path></g><g style="opacity:0.15"><path d="M660.28,386.17c-2.91,1.07-9.83.5-9.83.5s1.75-4.44,1.9-4.71c1.71-3.09,6.83-8.06,10.71-7.3a4.69,4.69,0,0,1,3.4,6.08C665.65,383.41,662.75,385.26,660.28,386.17Z"></path><path d="M662.42,395.73c-3.54-1.76-9.79,1.68-12.25,4.21-.17.18-2.16,2.75-2.84,3.68a.61.61,0,0,0,0-.12,60.7,60.7,0,0,0,2.42-10.57,83.71,83.71,0,0,0,.8-9.67c.11-3,0-5.75-.08-8.18-.06-1.32-.14-2.53-.23-3.65l.07.05s1.65-4.48,1.72-4.78c.78-3.44.28-10.56-3.12-12.58a4.69,4.69,0,0,0-6.59,2.27c-1.17,2.53-.25,5.84,1,8.17s5.65,5.87,6.74,6.73c.07,1.16.13,2.41.17,3.8,0,2.43.07,5.17-.1,8.16,0,.79-.12,1.64-.19,2.47-.18-1.41-.46-3.36-.51-3.54-.89-3.42-4.62-9.5-8.57-9.73a4.69,4.69,0,0,0-4.8,5.05c.12,2.79,2.47,5.29,4.65,6.79s7.89,2.65,9.13,2.88c-.17,1.83-.38,3.71-.71,5.66a61.55,61.55,0,0,1-2.62,10.39c-.07.19-.17.38-.24.58,0-.72-.09-4.66-.13-4.94-.51-3.49-3.55-9.94-7.45-10.6a4.67,4.67,0,0,0-5.32,4.48c-.19,2.79,1.87,5.54,3.87,7.27,2.3,2,8.73,3.85,9,3.92a82.45,82.45,0,0,1-4.43,9.73c-1.24,2.33-2.59,4.64-4,6.95,0-.94-.1-4.6-.14-4.87-.5-3.49-3.54-9.94-7.44-10.6a4.68,4.68,0,0,0-5.33,4.48c-.18,2.79,1.88,5.54,3.87,7.27,2.25,1.94,8.41,3.76,8.93,3.91-.63,1-1.25,2.09-1.89,3.14-2.07,3.41-4.16,6.82-6.12,10.25-.68,1.18-1.31,2.38-1.94,3.57,0-1.4-.1-3.94-.14-4.16-.5-3.5-3.54-10-7.44-10.61a4.69,4.69,0,0,0-5.33,4.49c-.18,2.78,1.88,5.54,3.87,7.26s7.15,3.38,8.61,3.82c-1,2-2,4-2.9,6-.36.88-.78,1.76-1.08,2.62s-.63,1.71-.94,2.56c-.59,1.77-1.13,3.42-1.63,5.08-.26.84-.49,1.64-.73,2.46.2-1.42.47-3.68.47-3.89,0-3.53-2-10.37-5.75-11.61a4.69,4.69,0,0,0-5.95,3.63,5.09,5.09,0,0,0-.13,1,18.21,18.21,0,0,0-3,8.68c0,.22.2,2.9.33,4.27-.36-1.07-.72-2.14-1.08-3.26-.52-1.61-1-3.34-1.52-5-.23-.87-.45-1.75-.69-2.64s-.38-1.78-.58-2.68c-.26-1.33-.47-2.71-.67-4.08,1.67-.44,6.56-1.81,8.56-3.39s4.24-4.3,4.18-7.09a4.68,4.68,0,0,0-5.13-4.71c-3.92.49-7.23,6.8-7.89,10.27,0,.11-.09.86-.15,1.75-.17-1.35-.33-2.7-.45-4.08-.34-3.89-.56-7.88-.8-11.87,0-.83-.11-1.66-.17-2.49,1.41-.36,6.72-1.79,8.82-3.45s4.25-4.3,4.18-7.09a4.67,4.67,0,0,0-5.13-4.71c-3.92.49-7.23,6.8-7.89,10.27,0,.12-.1,1-.17,2-.16-2.17-.35-4.33-.6-6.46a84,84,0,0,0-2-10.88c.5-.12,6.76-1.67,9.09-3.52,2.07-1.64,4.24-4.3,4.18-7.09a4.68,4.68,0,0,0-5.13-4.71c-3.92.49-7.23,6.8-7.89,10.27-.05.25-.29,3.48-.34,4.64l0-.13A61.62,61.62,0,0,0,593,389.13a83.62,83.62,0,0,0-4.67-8.5c-1.56-2.56-3.15-4.81-4.58-6.78-.78-1.07-1.51-2-2.2-2.91h.08c.07,0-1.1-4.65-1.2-4.94-1.25-3.3-5.59-9-9.54-8.76a4.67,4.67,0,0,0-4.25,5.52c.42,2.76,3,5,5.34,6.26s8,1.79,9.33,1.9c.7.94,1.44,1.94,2.23,3.08,1.38,2,2.92,4.27,4.42,6.86.41.68.81,1.44,1.22,2.16-.94-1.08-2.25-2.54-2.39-2.67C584.18,378,577.72,375,574.3,377a4.67,4.67,0,0,0-1.22,6.85c1.64,2.26,5,3.06,7.62,3.11s8-2.15,9.2-2.64c.88,1.62,1.74,3.3,2.53,5.11A59.26,59.26,0,0,1,596,399.51c0,.2.08.42.12.62-.37-.62-2.65-3.84-2.83-4.05-2.35-2.63-8.44-6.34-12.06-4.73a4.68,4.68,0,0,0-2,6.67c1.38,2.43,4.62,3.59,7.24,3.93,3,.39,9.41-1.6,9.65-1.68a80.79,80.79,0,0,1,1.66,10.56c.26,2.63.4,5.3.53,8-.5-.78-2.62-3.78-2.8-4-2.35-2.63-8.44-6.34-12.06-4.74a4.69,4.69,0,0,0-2,6.68c1.39,2.43,4.62,3.59,7.24,3.93,2.94.38,9.08-1.5,9.6-1.66.06,1.21.12,2.43.16,3.65.16,4,.29,8,.55,11.93.08,1.37.22,2.71.35,4.06-.79-1.16-2.26-3.24-2.41-3.41-2.35-2.63-8.44-6.34-12.06-4.73a4.68,4.68,0,0,0-2,6.68c1.39,2.42,4.62,3.58,7.24,3.92s7.82-1.13,9.28-1.57c.24,2.24.52,4.45.9,6.62.19.93.31,1.89.54,2.78l.63,2.66c.49,1.8.94,3.47,1.45,5.13.24.85.5,1.63.75,2.45-.63-1.29-1.65-3.33-1.76-3.5-1.93-3-7.39-7.55-11.2-6.51a4.68,4.68,0,0,0-3,6.3c1,2.61,4,4.25,6.56,5,2.79.81,8.94-.07,9.69-.18.48,1.53,1,3,1.44,4.43H608q-.8-2.21-1.61-4.6c.69-.28,6-2.54,8.16-4.61a50.41,50.41,0,0,0,5.25,2.86c-.58,2-1.12,4-1.6,5.81,0,.18-.09.36-.14.54h2.42c.39-1.67.84-3.43,1.31-5.23.76.15,6.85,1.28,9.67.6,2.57-.62,5.66-2.13,6.77-4.69a4.67,4.67,0,0,0-2.68-6.42c-3.77-1.2-9.43,3.14-11.48,6-.13.19-1.44,2.54-2.08,3.75.29-1.09.58-2.18.9-3.31.45-1.64,1-3.35,1.49-5,.29-.86.59-1.72.89-2.59s.66-1.69,1-2.55c.51-1.25,1.1-2.52,1.68-3.78,1.64.56,6.47,2.12,9,1.9s5.91-1.24,7.39-3.61a4.68,4.68,0,0,0-1.67-6.76c-3.55-1.75-9.79,1.69-12.26,4.22-.08.08-.54.67-1.09,1.37.61-1.21,1.22-2.43,1.88-3.64,1.87-3.44,3.88-6.89,5.88-10.35.42-.72.82-1.44,1.24-2.16,1.37.47,6.59,2.21,9.26,2s5.91-1.25,7.39-3.61a4.67,4.67,0,0,0-1.68-6.76c-3.54-1.75-9.78,1.69-12.25,4.22-.09.09-.64.79-1.25,1.58,1.06-1.89,2.09-3.79,3.06-5.71A84.19,84.19,0,0,0,647.18,404c.48.17,6.56,2.33,9.52,2.08,2.63-.23,5.91-1.25,7.4-3.61A4.68,4.68,0,0,0,662.42,395.73Z"></path><path d="M590.11,383.56c-.07,0-1-4.68-1-5-.28-3.52,1.25-10.49,4.91-12a4.68,4.68,0,0,1,6.19,3.19c.8,2.67-.6,5.81-2.16,7.94C596.19,380.21,590.11,383.56,590.11,383.56Z"></path></g></g><g id="freepik--plants-1--inject-2"><g style="opacity:0.15"><path d="M519.5,142.14c4.6,3.1,16.89,5.06,16.9,5.06s-1.17-8.49-1.31-9c-1.66-6.11-8.46-16.94-15.54-17.26-5.1-.24-8.78,4.24-8.51,9.13S515.57,139.5,519.5,142.14Z"></path><path d="M555.49,296c0,.29,0,.56,0,.84l4.25,2.66c0-1.15,0-2.32,0-3.52-.05-3.41-.16-7.05-.32-10.79a93.34,93.34,0,0,0,10.36-2.75c2.86,4.52,11.18,10.71,12.26,11.5-1.8,2.84-3.58,5.58-5.31,8.13-1.18,1.77-2.33,3.45-3.44,5.07l4.62.84c.77-1.17,1.54-2.36,2.34-3.6,1.84-2.87,3.76-6,5.69-9.18,1.26.51,11.6,4.65,16.81,4.44,4.72-.2,10.68-1.77,13.53-5.88s2-9.77-2.47-12.24c-6.2-3.43-17.67,2.24-22.28,6.58-.27.25-2.91,3.36-4.55,5.34.79-1.31,1.56-2.58,2.35-3.94,1.58-2.68,3.08-5.41,4.7-8.33l2.22-4.37c.78-1.44,1.41-3.06,2.13-4.6,1.59-3.61,3-7.35,4.38-11.14,2.35,1.37,10.78,6.15,15.5,6.67s10.83-.12,14.27-3.76,3.46-9.35-.59-12.47c-5.61-4.33-17.8-.46-23,3.12-.32.23-3.78,3.22-5.64,4.9.8-2.28,1.61-4.56,2.34-6.91,2.12-6.75,4.06-13.66,6-20.54.6-2.11,1.22-4.21,1.84-6.3.83.5,10.72,6.38,16,7,4.7.52,10.83-.12,14.27-3.76s3.46-9.35-.59-12.47c-5.61-4.33-17.8-.46-23,3.13-.39.27-5.35,4.58-6.56,5.74,1.36-4.62,2.75-9.21,4.31-13.68A149,149,0,0,1,625.23,194c.39.23,10.69,6.42,16.11,7,4.7.52,10.83-.12,14.27-3.76s3.45-9.35-.59-12.47c-5.62-4.33-17.81-.46-23,3.13-.41.28-5.75,4.93-6.66,5.84.17-.33.31-.69.48-1a107.85,107.85,0,0,1,10.48-16.1c2.15-2.81,4.36-5.38,6.57-7.84,1.8,1.36,10.1,7.43,14.91,8.51,4.62,1,10.78,1.07,14.6-2.16s4.46-8.92.78-12.47c-5.1-4.91-17.64-2.41-23.22.58-.3.17-3.2,2.16-5.3,3.65,1-1.1,2.05-2.24,3-3.27,3.72-3.86,7.36-7.16,10.61-10.07,1.86-1.63,3.58-3.07,5.2-4.41,2.46.41,12.38,1.91,17.06.67s10.06-4,12-8.65-.15-10-5-11.42c-6.79-2-16.77,6-20.34,11.21-.31.46-4.32,8.07-4.2,8.1l.15,0c-1.58,1.25-3.27,2.61-5.08,4.13-3.32,2.84-7,6.08-10.86,9.87a148.22,148.22,0,0,0-11.74,12.83,110.23,110.23,0,0,0-11,16.07,2,2,0,0,0-.1.21c.41-2,1.36-7.77,1.38-8.21.33-6.33-2.76-18.74-9.38-21.26-4.78-1.81-9.67,1.3-10.94,6s1.36,10.39,4.27,14.13c3.27,4.21,13.52,9.57,14.33,10A148.49,148.49,0,0,0,616,211c-1.35,3.61-2.59,7.28-3.8,11,.3-1.78.55-3.36.56-3.59.33-6.32-2.75-18.73-9.38-21.25-4.78-1.81-9.67,1.29-10.94,6s1.37,10.39,4.27,14.12,11.59,8.54,13.89,9.77c-.44,1.42-.91,2.84-1.35,4.27-2.11,6.85-4.19,13.69-6.44,20.34-.78,2.34-1.65,4.62-2.51,6.9.27-1.57.47-2.9.48-3.11.33-6.32-2.75-18.73-9.38-21.25-4.78-1.81-9.67,1.29-10.94,6s1.37,10.39,4.27,14.12,10.75,8.07,13.48,9.54c-.95,2.32-1.89,4.63-2.92,6.83-.73,1.48-1.33,3-2.15,4.41l-2.31,4.32c-1.58,2.69-3.18,5.47-4.78,8.06-1.1,1.8-2.19,3.5-3.27,5.22.81-2.33,2.31-6.91,2.39-7.3a32.61,32.61,0,0,0-1.45-16.38,9.53,9.53,0,0,0,.22-1.84c.1-4.9-3.72-9.26-8.82-8.85-7.06.57-13.5,11.62-15,17.78-.09.36-.58,4.41-.84,7-.08-1.53-.13-3-.22-4.59-.16-3.11-.42-6.2-.68-9.54-.18-1.61-.37-3.23-.55-4.87s-.52-3.33-.77-5c-.67-3.89-1.53-7.79-2.49-11.71,2.72-.15,12.38-.82,16.61-3s9-6.07,9.83-11-2.28-9.71-7.37-10.08c-7.08-.51-15.11,9.44-17.48,15.31-.15.36-1.38,4.76-2,7.2-.59-2.35-1.17-4.7-1.85-7.06-2-6.81-4.16-13.64-6.32-20.46-.66-2.09-1.3-4.18-1.94-6.27,1,0,12.47-.59,17.2-3,4.21-2.16,9-6.08,9.83-11s-2.27-9.71-7.37-10.08c-7.07-.51-15.1,9.44-17.47,15.31-.18.44-1.94,6.78-2.31,8.41-1.41-4.6-2.78-9.2-3.95-13.79a147.91,147.91,0,0,1-3.6-18.82c.45,0,12.46-.54,17.31-3,4.2-2.16,9-6.08,9.83-11s-2.28-9.71-7.38-10.08c-7.07-.51-15.1,9.44-17.47,15.31-.19.46-2.07,7.28-2.33,8.54,0-.37-.13-.75-.17-1.11a108.45,108.45,0,0,1-.14-19.21c.24-3.54.68-6.9,1.17-10.16,2.24.13,12.51.62,17.12-1.13,4.42-1.69,9.59-5.06,11-9.86s-1.19-9.9-6.22-10.83c-7-1.28-16.05,7.72-19.05,13.29-.16.31-1.48,3.57-2.41,6,.25-1.46.47-3,.74-4.39,1-5.27,2.18-10,3.29-14.25.65-2.4,1.29-4.55,1.91-6.55,2.27-1,11.37-5.24,14.6-8.86s6.17-8.9,5.2-13.81-5.63-8.23-10.51-6.74c-6.78,2.07-10.69,14.25-10.79,20.58,0,.54.85,9.11,1,9.06l.14-.06c-.63,1.92-1.29,4-2,6.25-1.2,4.2-2.53,8.95-3.62,14.22a150,150,0,0,0-2.71,17.18,109.07,109.07,0,0,0-.27,19.45,1.6,1.6,0,0,0,0,.23c-.79-1.92-3.16-7.23-3.38-7.62-3.22-5.45-12.64-14.1-19.55-12.54-5,1.12-7.35,6.41-5.8,11.06s6.87,7.91,11.35,9.43c5,1.7,16.56.53,17.47.43A149.54,149.54,0,0,0,538,198.35c.87,3.75,1.86,7.51,2.9,11.26-.73-1.64-1.39-3.1-1.51-3.3-3.21-5.45-12.63-14.1-19.55-12.54-5,1.11-7.35,6.4-5.8,11s6.88,7.92,11.36,9.43,14.37.73,17,.48c.41,1.44.81,2.87,1.23,4.31,2,6.87,4,13.73,5.85,20.51.63,2.39,1.17,4.77,1.71,7.15-.65-1.46-1.21-2.68-1.31-2.86-3.22-5.45-12.63-14.1-19.55-12.55-5,1.12-7.35,6.41-5.8,11.06s6.87,7.92,11.36,9.43c4.33,1.46,13.41.8,16.5.52.48,2.45,1,4.91,1.33,7.3.21,1.64.53,3.21.64,4.87s.3,3.27.45,4.88c.17,3.11.37,6.32.46,9.35.08,2.12.11,4.13.16,6.16-.61-2.38-1.88-7-2-7.41C551,271.57,543,261.6,535.94,262.09c-5.1.35-8.24,5.22-7.4,10.05s5.59,8.87,9.79,11c4.62,2.39,15.72,3,17.1,3.07C555.49,289.61,555.52,292.88,555.49,296Z"></path><path d="M642.83,167.43c.09.09,3.71-7.73,3.88-8.24,2-6,2.29-18.8-3.44-23-4.12-3-9.66-1.31-12.14,2.93s-1.43,10.38.39,14.75C633.65,159,642.82,167.43,642.83,167.43Z"></path></g><g style="opacity:0.15"><path d="M266.25,123.94c-2.47,5-12.19,12.74-12.2,12.74s-3.18-8-3.31-8.49c-1.58-6.13-1-18.91,5-22.69,4.32-2.72,9.73-.64,11.91,3.74S268.36,119.7,266.25,123.94Z"></path><path d="M310.91,275.46l.43.73L309,280.6c-.57-1-1.13-2-1.71-3.08-1.64-3-3.34-6.21-5.05-9.54a90.47,90.47,0,0,1-10.36,2.72c-.26,5.35-4.44,14.84-5,16.06,3,1.58,5.87,3.08,8.63,4.45q2.85,1.43,5.5,2.7l-3.61,3-3.81-2c-3-1.59-6.21-3.34-9.48-5.17-.84,1.07-7.79,9.77-12.42,12.15-4.21,2.17-10.17,3.75-14.68,1.58s-6.56-7.51-3.89-11.86c3.7-6,16.47-6.78,22.62-5.29.37.09,4.2,1.49,6.6,2.41-1.33-.76-2.63-1.48-4-2.27-2.7-1.55-5.35-3.19-8.2-4.93L266,278.88c-1.38-.88-2.74-2-4.12-3-3.17-2.36-6.26-4.9-9.31-7.53-1.37,2.36-6.34,10.67-10.19,13.46s-9.48,5.24-14.26,3.78-7.63-6.43-5.65-11.14c2.75-6.53,15.25-9.19,21.56-8.65.39,0,4.88.94,7.33,1.48-1.83-1.6-3.66-3.18-5.45-4.85-5.18-4.83-10.28-9.88-15.38-14.9-1.57-1.54-3.14-3-4.71-4.57-.48.85-6.17,10.85-10.48,14-3.83,2.78-9.48,5.25-14.27,3.78s-7.62-6.42-5.64-11.13c2.74-6.54,15.25-9.2,21.56-8.65.47,0,6.92,1.34,8.54,1.75-3.46-3.34-6.94-6.65-10.51-9.77a148,148,0,0,0-15.15-11.73c-.22.4-6.12,10.87-10.53,14.06-3.83,2.78-9.48,5.25-14.26,3.78s-7.63-6.42-5.65-11.13c2.75-6.54,15.25-9.2,21.56-8.65.49,0,7.43,1.44,8.67,1.79-.31-.21-.61-.45-.92-.65a107.47,107.47,0,0,0-17.06-8.83c-3.26-1.38-6.45-2.52-9.59-3.56-.89,2.06-5.1,11.44-8.76,14.76-3.5,3.17-8.84,6.25-13.76,5.32s-8.28-5.55-6.84-10.45c2-6.8,14.15-10.81,20.48-11,.35,0,3.86.29,6.41.55-1.42-.45-2.88-.94-4.25-1.34-5.14-1.52-9.94-2.6-14.21-3.52-2.42-.5-4.63-.91-6.69-1.26-1.94,1.56-9.83,7.77-14.51,9s-10.73,1.48-14.67-1.61-4.79-8.75-1.25-12.43c4.92-5.1,17.54-3.07,23.23-.29.49.24,7.74,4.88,7.64,5l-.11.1c2,.3,4.13.65,6.45,1.08,4.29.83,9.13,1.81,14.32,3.22a148.9,148.9,0,0,1,16.55,5.36,109.83,109.83,0,0,1,17.46,8.56l.2.13c-1.37-1.57-5-6.08-5.26-6.46-3.41-5.33-6.86-17.65-2.34-23.11,3.26-3.94,9-3.65,12.49-.16s3.94,9.71,3.26,14.39c-.77,5.28-7,15-7.52,15.77a150.21,150.21,0,0,1,15.93,11.78c3,2.47,5.86,5.06,8.73,7.68-1.13-1.39-2.14-2.65-2.26-2.84-3.4-5.34-6.85-17.65-2.33-23.11,3.26-3.94,9-3.65,12.48-.16s3.95,9.71,3.27,14.39-5.86,13.15-7.26,15.35c1.09,1,2.2,2,3.28,3.05,5.22,4.91,10.41,9.83,15.64,14.5,1.85,1.65,3.72,3.2,5.6,4.77-1-1.24-1.84-2.3-2-2.47-3.41-5.34-6.86-17.65-2.34-23.11,3.26-3.94,9-3.65,12.49-.16S265.66,249,265,253.7s-5.36,12.32-7,14.95c2,1.54,3.93,3.09,5.91,4.5,1.37.92,2.62,1.91,4.05,2.77l4.15,2.61c2.69,1.56,5.46,3.19,8.13,4.64,1.85,1,3.63,2,5.42,2.93-1.86-1.62-5.42-4.86-5.69-5.16a32.72,32.72,0,0,1-6.82-15,10.14,10.14,0,0,1-1.1-1.5c-2.51-4.21-1.33-9.88,3.3-12,6.42-3,17.47,3.43,21.78,8.07.25.28,2.68,3.55,4.17,5.65-.69-1.37-1.38-2.68-2.07-4.1-1.4-2.78-2.7-5.6-4.13-8.63q-.94-2.24-1.92-4.51c-.67-1.49-1.19-3.15-1.8-4.73-1.34-3.71-2.52-7.54-3.62-11.42-2.44,1.22-11.17,5.41-15.92,5.61s-10.8-.86-14-4.72-2.82-9.57,1.43-12.4c5.9-3.94,17.8.74,22.76,4.68.31.24,3.55,3.46,5.3,5.27-.65-2.34-1.3-4.67-1.87-7.05-1.66-6.89-3.13-13.91-4.61-20.91-.46-2.15-.94-4.28-1.41-6.41-.87.44-11.14,5.64-16.45,5.87-4.72.2-10.8-.86-14-4.72s-2.82-9.56,1.43-12.4c5.9-3.94,17.79.75,22.75,4.68.38.3,5,4.94,6.16,6.18-1-4.7-2.12-9.38-3.37-13.95a147.51,147.51,0,0,0-6.17-18.14c-.4.2-11.09,5.68-16.54,5.92-4.72.2-10.8-.86-14-4.72s-2.81-9.57,1.43-12.4c5.9-3.94,17.8.74,22.76,4.68.39.3,5.4,5.3,6.24,6.27-.14-.34-.25-.71-.4-1.05A108.9,108.9,0,0,0,260,146.29c-2-2.95-4-5.67-6-8.26-1.88,1.22-10.57,6.73-15.45,7.48-4.67.71-10.82.33-14.41-3.16s-3.85-9.2.06-12.48c5.43-4.56,17.77-1.21,23.13,2.15.29.18,3,2.37,5,4-.94-1.15-1.89-2.37-2.81-3.46-3.45-4.1-6.86-7.65-9.91-10.76-1.74-1.76-3.36-3.32-4.88-4.76-2.48.24-12.48,1.06-17.07-.49s-9.77-4.69-11.34-9.44.82-9.94,5.8-11c6.92-1.55,16.33,7.11,19.54,12.57.28.47,3.77,8.34,3.64,8.36h-.15c1.5,1.35,3.08,2.83,4.79,4.47,3.12,3.05,6.62,6.53,10.17,10.58a150.05,150.05,0,0,1,10.84,13.6,108.9,108.9,0,0,1,9.84,16.77l.09.22c-.27-2.06-.83-7.84-.82-8.29.1-6.33,4-18.5,10.8-20.57,4.89-1.48,9.56,1.95,10.5,6.76s-2.06,10.28-5.21,13.8c-3.55,4-14.14,8.64-15,9a150.23,150.23,0,0,1,6.8,18.61c1.1,3.69,2.09,7.45,3,11.22-.18-1.79-.32-3.39-.32-3.61.1-6.33,4-18.5,10.81-20.57,4.88-1.48,9.55,1.95,10.5,6.76s-2.07,10.28-5.22,13.8-12.14,7.73-14.52,8.8c.35,1.45.71,2.9,1.05,4.35,1.65,7,3.26,13.94,5.05,20.73.63,2.39,1.34,4.72,2,7.06-.16-1.59-.28-2.93-.27-3.14.1-6.33,4-18.5,10.8-20.56,4.89-1.49,9.56,1.94,10.5,6.75s-2.06,10.28-5.21,13.81-11.27,7.32-14.1,8.6c.79,2.37,1.58,4.75,2.45,7,.63,1.53,1.13,3,1.85,4.55l2,4.46c1.38,2.79,2.8,5.68,4.22,8.36,1,1.88,1.94,3.65,2.9,5.44-.65-2.38-1.83-7-1.89-7.45-.86-6.27,1.17-18.9,7.57-22,4.6-2.21,9.74.47,11.4,5.08s-.49,10.47-3.07,14.43c-2.84,4.37-12.18,10.38-13.35,11.12C307.77,269.94,309.37,272.79,310.91,275.46Z"></path><path d="M171.5,206.83c0,.12-7.05-4.89-7.45-5.26-4.7-4.24-11.27-15.21-8.36-21.67,2.1-4.66,7.76-5.91,12-3.45s6.37,8.32,6.95,13C175.32,195,171.5,206.82,171.5,206.83Z"></path></g></g><g id="freepik--credit-card--inject-2"><path d="M421.87,276.14,464.51,57.05a7.17,7.17,0,0,1,8.41-5.67L603.5,76.8a7.16,7.16,0,0,1,5.67,8.4L566.53,304.29a7.17,7.17,0,0,1-8.4,5.67L427.54,284.54A7.17,7.17,0,0,1,421.87,276.14Z" style="fill:#263238;stroke:#263238;stroke-miterlimit:10"></path><rect x="472.96" y="79.99" width="25.14" height="10.4" transform="translate(661.9 -375.12) rotate(101.01)" style="fill:#fff;stroke:#263238;stroke-miterlimit:10"></rect><rect x="466.58" y="112.75" width="25.14" height="10.4" transform="translate(686.46 -329.85) rotate(101.01)" style="fill:#fff;stroke:#263238;stroke-miterlimit:10"></rect><rect x="460.21" y="145.51" width="25.14" height="10.4" transform="translate(711.02 -284.57) rotate(101.01)" style="fill:#fff;stroke:#263238;stroke-miterlimit:10"></rect><rect x="453.83" y="178.27" width="25.14" height="10.4" transform="translate(735.59 -239.29) rotate(101.01)" style="fill:#fff;stroke:#263238;stroke-miterlimit:10"></rect><rect x="447.46" y="211.04" width="25.14" height="10.4" transform="matrix(-0.19, 0.98, -0.98, -0.19, 760.15, -194.01)" style="fill:#fff;stroke:#263238;stroke-miterlimit:10"></rect><rect x="441.08" y="243.8" width="25.14" height="10.4" transform="translate(784.72 -148.74) rotate(101.01)" style="fill:#fff;stroke:#263238;stroke-miterlimit:10"></rect><rect x="504.33" y="88.81" width="54.62" height="40.74" rx="3.31" transform="translate(740.36 -391.82) rotate(101.01)" style="fill:#fff;stroke:#263238;stroke-miterlimit:10"></rect><rect x="515.82" y="147.83" width="119.63" height="6.07" transform="translate(833.68 -385.36) rotate(101.01)" style="fill:#fff;stroke:#263238;stroke-miterlimit:10"></rect></g><g id="freepik--Banknotes--inject-2"><rect x="295.18" y="68.63" width="115.36" height="199.73" transform="translate(16.03 367.11) rotate(-56.05)" style="fill:#92E3A9;stroke:#263238;stroke-miterlimit:10"></rect><path d="M319.67,90.11a13.91,13.91,0,0,1-19.32,3.77A12.71,12.71,0,0,1,299,92.82l-37,55a14.75,14.75,0,0,1,1.49.86A13.91,13.91,0,0,1,267.26,168c-.16.24-.34.46-.51.69l118.38,79.7c.14-.25.28-.5.44-.74a13.88,13.88,0,0,1,20.68-2.72l37-54.94a14.75,14.75,0,0,1-1.49-.86A13.91,13.91,0,0,1,438,169.76a12.92,12.92,0,0,1,1-1.36L320.53,88.62A15.93,15.93,0,0,1,319.67,90.11Zm52.11,91.13a22.81,22.81,0,1,1-6.18-31.67A22.8,22.8,0,0,1,371.78,181.24Z" style="fill:#fff;stroke:#263238;stroke-miterlimit:10"></path><rect x="297.56" y="59.98" width="115.36" height="199.73" transform="translate(0.89 321.66) rotate(-48.77)" style="fill:#92E3A9;stroke:#263238;stroke-miterlimit:10"></rect><path d="M332.25,77.89a13.92,13.92,0,0,1-19.64,1.29A15.6,15.6,0,0,1,311.39,78l-43.65,49.81a13.47,13.47,0,0,1,1.37,1,13.91,13.91,0,0,1,1.29,19.64c-.19.21-.39.41-.6.61l107.33,94.06c.17-.23.34-.46.53-.67a13.92,13.92,0,0,1,19.64-1.3,15.6,15.6,0,0,1,1.22,1.22l43.66-49.81a13.58,13.58,0,0,1-1.38-1,13.91,13.91,0,0,1-1.29-19.64,15.45,15.45,0,0,1,1.22-1.21L333.3,76.51A13.58,13.58,0,0,1,332.25,77.89Zm40.15,97a22.81,22.81,0,1,1-2.12-32.19A22.81,22.81,0,0,1,372.4,174.88Z" style="fill:#fff;stroke:#263238;stroke-miterlimit:10"></path><rect x="310.27" y="53.68" width="115.36" height="199.73" transform="translate(-13.13 270.77) rotate(-39.75)" style="fill:#92E3A9;stroke:#263238;stroke-miterlimit:10"></rect><path d="M358.09,69a13.91,13.91,0,0,1-19.6-1.8,15,15,0,0,1-1-1.4l-50.92,42.36a15.75,15.75,0,0,1,1.19,1.25A13.92,13.92,0,0,1,286,129c-.23.18-.46.34-.69.51l91.25,109.72c.21-.19.41-.39.63-.58a13.92,13.92,0,0,1,19.6,1.8,15,15,0,0,1,1,1.4l50.93-42.35a12.81,12.81,0,0,1-1.19-1.25,13.91,13.91,0,0,1,1.8-19.6,13.38,13.38,0,0,1,1.4-1L359.34,67.8A12.81,12.81,0,0,1,358.09,69Zm24.45,102.1A22.81,22.81,0,1,1,385.49,139,22.82,22.82,0,0,1,382.54,171.09Z" style="fill:#fff;stroke:#263238;stroke-miterlimit:10"></path><rect x="331.25" y="48.08" width="115.36" height="199.73" transform="translate(-25.55 184.87) rotate(-25.92)" style="fill:#92E3A9;stroke:#263238;stroke-miterlimit:10"></rect><path d="M399.57,63.49A13.92,13.92,0,0,1,381,57.06a15.24,15.24,0,0,1-.64-1.6L320.75,84.41a14.46,14.46,0,0,1,.86,1.49,13.92,13.92,0,0,1-6.43,18.6c-.27.13-.53.23-.8.34L376.76,233.2c.25-.15.49-.29.75-.42a13.91,13.91,0,0,1,18.6,6.44,14.35,14.35,0,0,1,.65,1.59l59.57-28.95a14.46,14.46,0,0,1-.86-1.49,13.93,13.93,0,0,1,6.44-18.6,12.78,12.78,0,0,1,1.6-.65L401.07,62.63A14.61,14.61,0,0,1,399.57,63.49Zm-.67,105A22.81,22.81,0,1,1,409.45,138,22.82,22.82,0,0,1,398.9,168.47Z" style="fill:#fff;stroke:#263238;stroke-miterlimit:10"></path><rect x="358.24" y="48.36" width="115.36" height="199.73" transform="translate(-17.63 64.62) rotate(-8.7)" style="fill:#92E3A9;stroke:#263238;stroke-miterlimit:10"></rect><path d="M451.09,70.7a13.91,13.91,0,0,1-15.86-11.65,14.44,14.44,0,0,1-.15-1.72l-65.47,10A14.7,14.7,0,0,1,370,69a13.92,13.92,0,0,1-11.66,15.86c-.28,0-.57.06-.85.09l21.58,141.07c.28-.07.56-.13.85-.18a13.92,13.92,0,0,1,15.86,11.65,12.59,12.59,0,0,1,.14,1.72l65.48-10a13.37,13.37,0,0,1-.38-1.69,13.92,13.92,0,0,1,11.65-15.86,14.44,14.44,0,0,1,1.72-.15L452.77,70.32A12.84,12.84,0,0,1,451.09,70.7ZM419.37,170.77a22.81,22.81,0,1,1,19.1-26A22.81,22.81,0,0,1,419.37,170.77Z" style="fill:#fff;stroke:#263238;stroke-miterlimit:10"></path></g><g id="freepik--Window--inject-2"><rect x="250.91" y="167.62" width="348.04" height="297.19" rx="11.79" style="fill:#fff;stroke:#263238;stroke-miterlimit:10"></rect><path d="M599,197.59V179.41a11.79,11.79,0,0,0-11.79-11.79H262.7a11.79,11.79,0,0,0-11.79,11.79v18.18Z" style="fill:#666;stroke:#263238;stroke-miterlimit:10"></path><path d="M550.49,183.46a4.43,4.43,0,1,0-4.43,4.42A4.43,4.43,0,0,0,550.49,183.46Z" style="fill:#fff;stroke:#263238;stroke-miterlimit:10"></path><path d="M565.35,183.46a4.43,4.43,0,1,0-4.43,4.42A4.43,4.43,0,0,0,565.35,183.46Z" style="fill:#fff;stroke:#263238;stroke-miterlimit:10"></path><path d="M580.21,183.46a4.43,4.43,0,1,0-4.43,4.42A4.43,4.43,0,0,0,580.21,183.46Z" style="fill:#92E3A9;stroke:#263238;stroke-miterlimit:10"></path></g><g id="freepik--Levels--inject-2"><path d="M578.67,415.21h-72a80.09,80.09,0,0,0-28.24-51.37l50.8-50.8A151.58,151.58,0,0,1,578.67,415.21Z" style="fill:#92E3A9"></path><path d="M375.69,363.83a80.11,80.11,0,0,0-28.22,51.38h-72A151.58,151.58,0,0,1,324.9,313Z" style="fill:#92E3A9"></path><path d="M375.69,363.83a80.11,80.11,0,0,0-28.22,51.38h-72A151.58,151.58,0,0,1,324.9,313Z" style="fill:#fff;opacity:0.9"></path><path d="M427.07,273.57v71.67a79.93,79.93,0,0,0-51.38,18.59L324.9,313A151.46,151.46,0,0,1,427.07,273.57Z" style="fill:#92E3A9"></path><path d="M427.07,273.57v71.67a79.93,79.93,0,0,0-51.38,18.59L324.9,313A151.46,151.46,0,0,1,427.07,273.57Z" style="fill:#fff;opacity:0.6000000000000001"></path><path d="M529.24,313l-50.8,50.8a79.88,79.88,0,0,0-51.37-18.6V273.57A151.46,151.46,0,0,1,529.24,313Z" style="fill:#92E3A9"></path><path d="M529.24,313l-50.8,50.8a79.88,79.88,0,0,0-51.37-18.6V273.57A151.46,151.46,0,0,1,529.24,313Z" style="fill:#fff;opacity:0.30000000000000004"></path><path d="M578.67,415.21h-72a80.09,80.09,0,0,0-28.24-51.37l50.8-50.8A151.58,151.58,0,0,1,578.67,415.21Z" style="fill:none;stroke:#263238;stroke-miterlimit:10"></path><path d="M375.69,363.83a80.11,80.11,0,0,0-28.22,51.38h-72A151.58,151.58,0,0,1,324.9,313Z" style="fill:none;stroke:#263238;stroke-miterlimit:10"></path><path d="M375.69,363.83a80.11,80.11,0,0,0-28.22,51.38h-72A151.58,151.58,0,0,1,324.9,313Z" style="fill:none;stroke:#263238;stroke-miterlimit:10;opacity:0.9"></path><path d="M427.07,273.57v71.67a79.93,79.93,0,0,0-51.38,18.59L324.9,313A151.46,151.46,0,0,1,427.07,273.57Z" style="fill:none;stroke:#263238;stroke-miterlimit:10"></path><path d="M427.07,273.57v71.67a79.93,79.93,0,0,0-51.38,18.59L324.9,313A151.46,151.46,0,0,1,427.07,273.57Z" style="fill:none;stroke:#263238;stroke-miterlimit:10;opacity:0.6000000000000001"></path><path d="M529.24,313l-50.8,50.8a79.88,79.88,0,0,0-51.37-18.6V273.57A151.46,151.46,0,0,1,529.24,313Z" style="fill:none;stroke:#263238;stroke-miterlimit:10"></path><path d="M529.24,313l-50.8,50.8a79.88,79.88,0,0,0-51.37-18.6V273.57A151.46,151.46,0,0,1,529.24,313Z" style="fill:none;stroke:#263238;stroke-miterlimit:10;opacity:0.30000000000000004"></path><path d="M441.22,406.55l29.59-33.28-41.63,18.52a13.8,13.8,0,1,0,12,14.76Z" style="fill:#263238;stroke:#263238;stroke-miterlimit:10"></path><path d="M431.27,410.1a6,6,0,1,0-8.41-.86A6,6,0,0,0,431.27,410.1Z" style="fill:#fff;stroke:#263238;stroke-miterlimit:10"></path><path d="M507.41,384.68v-11.4h5v1.61h-2.65v3h2v1.62h-2v3.58h2.68v1.57Z" style="fill:#263238"></path><path d="M512.83,384.68l2.25-6.09-2.17-5.31h2.2l1.35,3.28,1.14-3.28h2l-2.09,5.84,2.28,5.56h-2.16l-1.5-3.59-1.3,3.59Z" style="fill:#263238"></path><path d="M523.71,384.84a3.64,3.64,0,0,1-2-.48,2.49,2.49,0,0,1-1-1.33,6,6,0,0,1-.3-2V377a6.18,6.18,0,0,1,.3-2,2.44,2.44,0,0,1,1-1.31,3.74,3.74,0,0,1,2-.47,3.86,3.86,0,0,1,1.92.41,2.25,2.25,0,0,1,1,1.15,4.88,4.88,0,0,1,.29,1.74v.95h-2.25v-1.07a5.8,5.8,0,0,0,0-.74,1,1,0,0,0-.24-.56.83.83,0,0,0-.65-.22.87.87,0,0,0-.67.23,1.08,1.08,0,0,0-.27.58,4.92,4.92,0,0,0-.06.8v5.18a4.1,4.1,0,0,0,.08.83,1,1,0,0,0,.29.55.93.93,0,0,0,.63.19.8.8,0,0,0,.64-.22,1,1,0,0,0,.24-.58,6.23,6.23,0,0,0,0-.77v-1.12h2.25v.95a5,5,0,0,1-.28,1.76,2.37,2.37,0,0,1-1,1.21A3.55,3.55,0,0,1,523.71,384.84Z" style="fill:#263238"></path><path d="M528.32,384.68v-11.4h5v1.61h-2.65v3h2v1.62h-2v3.58h2.68v1.57Z" style="fill:#263238"></path><path d="M534.48,384.68v-11.4h2.33v9.83h2.67v1.57Z" style="fill:#263238"></path><path d="M540.49,384.68v-11.4h2.32v9.83h2.68v1.57Z" style="fill:#263238"></path><path d="M546.5,384.68v-11.4h5v1.61h-2.65v3h2v1.62h-2v3.58h2.68v1.57Z" style="fill:#263238"></path><path d="M552.66,384.68v-11.4h1.62l2.53,5.94v-5.94h1.92v11.4h-1.55l-2.53-6.3v6.3Z" style="fill:#263238"></path><path d="M561.53,384.68V375h-1.76v-1.73h5.82V375h-1.73v9.67Z" style="fill:#263238"></path><path d="M308.16,384.68v-11.4h3.61a3.21,3.21,0,0,1,1.68.39,2.35,2.35,0,0,1,1,1.12,4.48,4.48,0,0,1,.32,1.77,3.7,3.7,0,0,1-.42,1.92,2.23,2.23,0,0,1-1.13,1,4.26,4.26,0,0,1-1.65.29h-1v4.94Zm2.32-6.57h.81a1.58,1.58,0,0,0,.79-.16.85.85,0,0,0,.37-.52,3.61,3.61,0,0,0,.1-.9,4.3,4.3,0,0,0-.08-.87.9.9,0,0,0-.35-.55,1.43,1.43,0,0,0-.84-.19h-.8Z" style="fill:#263238"></path><path d="M319.1,384.84a3.77,3.77,0,0,1-2-.45,2.53,2.53,0,0,1-1.05-1.29,5.73,5.73,0,0,1-.32-2v-4.25a5.61,5.61,0,0,1,.32-2,2.41,2.41,0,0,1,1.05-1.27,4.69,4.69,0,0,1,4,0,2.42,2.42,0,0,1,1.05,1.26,5.61,5.61,0,0,1,.32,2v4.25a5.73,5.73,0,0,1-.32,2,2.53,2.53,0,0,1-1.05,1.29A3.84,3.84,0,0,1,319.1,384.84Zm0-1.68a1,1,0,0,0,.67-.2,1.07,1.07,0,0,0,.28-.55,4.32,4.32,0,0,0,.07-.74v-5.39a4.11,4.11,0,0,0-.07-.73,1,1,0,0,0-.28-.54.94.94,0,0,0-.67-.21.86.86,0,0,0-.63.21,1,1,0,0,0-.28.54,3.35,3.35,0,0,0-.07.73v5.39a4.35,4.35,0,0,0,.06.74,1,1,0,0,0,.28.55A.91.91,0,0,0,319.1,383.16Z" style="fill:#263238"></path><path d="M327.21,384.84a3.78,3.78,0,0,1-2-.45,2.56,2.56,0,0,1-1-1.29,5.51,5.51,0,0,1-.32-2v-4.25a5.39,5.39,0,0,1,.32-2,2.43,2.43,0,0,1,1-1.27,3.89,3.89,0,0,1,2-.44,3.82,3.82,0,0,1,2,.45,2.39,2.39,0,0,1,1.06,1.26,5.62,5.62,0,0,1,.31,2v4.25a5.74,5.74,0,0,1-.31,2,2.5,2.5,0,0,1-1.06,1.29A3.82,3.82,0,0,1,327.21,384.84Zm0-1.68a1,1,0,0,0,.66-.2,1.07,1.07,0,0,0,.28-.55,3.51,3.51,0,0,0,.07-.74v-5.39a3.35,3.35,0,0,0-.07-.73,1,1,0,0,0-.28-.54,1.11,1.11,0,0,0-1.3,0,1,1,0,0,0-.28.54,4.11,4.11,0,0,0-.07.73v5.39a3.51,3.51,0,0,0,.07.74,1,1,0,0,0,.27.55A.94.94,0,0,0,327.21,383.16Z" style="fill:#263238"></path><path d="M332.13,384.68v-11.4h3a6.62,6.62,0,0,1,2,.26,2.29,2.29,0,0,1,1.27.93,3.2,3.2,0,0,1,.44,1.82,5.83,5.83,0,0,1-.12,1.25,2.38,2.38,0,0,1-.42.94,2,2,0,0,1-.85.64l1.58,5.56h-2.38l-1.31-5.16h-.82v5.16Zm2.32-6.54h.68A1.76,1.76,0,0,0,336,378a1,1,0,0,0,.45-.55,2.74,2.74,0,0,0,.14-.92,2.14,2.14,0,0,0-.29-1.21,1.24,1.24,0,0,0-1.08-.41h-.79Z" style="fill:#263238"></path><path d="M454.65,320.76a3,3,0,0,1-1.82-.49,2.6,2.6,0,0,1-1-1.38,6.76,6.76,0,0,1-.29-2.07V313a6.58,6.58,0,0,1,.3-2.11,2.52,2.52,0,0,1,1-1.37,3.67,3.67,0,0,1,2-.48,3.9,3.9,0,0,1,1.93.41,2.28,2.28,0,0,1,1,1.15,4.57,4.57,0,0,1,.31,1.78v.66h-2.26v-.8a4.74,4.74,0,0,0-.06-.8.8.8,0,0,0-.91-.74.86.86,0,0,0-.68.24,1.22,1.22,0,0,0-.27.61,6.73,6.73,0,0,0-.05.8v5.05a4.49,4.49,0,0,0,.08.86,1.09,1.09,0,0,0,.32.59,1,1,0,0,0,.67.21.9.9,0,0,0,.67-.23,1.13,1.13,0,0,0,.33-.61,3.84,3.84,0,0,0,.09-.88v-1.21H455v-1.4h3.21v5.85h-1.52l-.14-1a2,2,0,0,1-.68.86A1.93,1.93,0,0,1,454.65,320.76Z" style="fill:#263238"></path><path d="M463,320.74a3.63,3.63,0,0,1-2-.45,2.47,2.47,0,0,1-1.05-1.28,5.73,5.73,0,0,1-.32-2v-4.25a5.67,5.67,0,0,1,.32-2,2.42,2.42,0,0,1,1.05-1.26,3.82,3.82,0,0,1,2-.44,3.89,3.89,0,0,1,2,.45,2.42,2.42,0,0,1,1,1.26,5.57,5.57,0,0,1,.32,2V317a5.73,5.73,0,0,1-.32,2,2.47,2.47,0,0,1-1,1.28A3.79,3.79,0,0,1,463,320.74Zm0-1.67a1,1,0,0,0,.66-.2,1,1,0,0,0,.28-.55,3.51,3.51,0,0,0,.07-.74v-5.39a3.35,3.35,0,0,0-.07-.73.94.94,0,0,0-.28-.54.9.9,0,0,0-.66-.21.86.86,0,0,0-.63.21.94.94,0,0,0-.28.54,3.35,3.35,0,0,0-.07.73v5.39a4.35,4.35,0,0,0,.06.74,1,1,0,0,0,.27.55A.94.94,0,0,0,463,319.07Z" style="fill:#263238"></path><path d="M471.07,320.74a3.68,3.68,0,0,1-2-.45,2.47,2.47,0,0,1-1-1.28,5.74,5.74,0,0,1-.31-2v-4.25a5.68,5.68,0,0,1,.31-2,2.42,2.42,0,0,1,1-1.26,4.69,4.69,0,0,1,4,0,2.49,2.49,0,0,1,1.06,1.26,5.58,5.58,0,0,1,.31,2V317a5.74,5.74,0,0,1-.31,2,2.53,2.53,0,0,1-1.06,1.28A3.74,3.74,0,0,1,471.07,320.74Zm0-1.67a1,1,0,0,0,.67-.2,1.07,1.07,0,0,0,.28-.55,4.32,4.32,0,0,0,.07-.74v-5.39a4.11,4.11,0,0,0-.07-.73,1,1,0,0,0-.28-.54.94.94,0,0,0-.67-.21.86.86,0,0,0-.63.21,1,1,0,0,0-.28.54,3.35,3.35,0,0,0-.07.73v5.39a4.35,4.35,0,0,0,.06.74,1,1,0,0,0,.28.55A.91.91,0,0,0,471.07,319.07Z" style="fill:#263238"></path><path d="M476,320.59v-11.4h2.79a5.46,5.46,0,0,1,2.25.38,2.18,2.18,0,0,1,1.15,1.16,5.36,5.36,0,0,1,.34,2v4.15a5.58,5.58,0,0,1-.34,2.08,2.25,2.25,0,0,1-1.13,1.2,5.14,5.14,0,0,1-2.22.39Zm2.32-1.62h.49a1.63,1.63,0,0,0,.92-.2.92.92,0,0,0,.35-.61,5.52,5.52,0,0,0,.07-1v-4.7a4.07,4.07,0,0,0-.09-1,.83.83,0,0,0-.37-.53,1.81,1.81,0,0,0-.89-.16h-.48Z" style="fill:#263238"></path><path d="M367,320.59v-11.4h4.81v1.58H369.3v3.08h2.11v1.62H369.3v5.12Z" style="fill:#263238"></path><path d="M372,320.59l2.2-11.4h2.58l2.19,11.4h-2.15l-.41-2.5h-1.8l-.43,2.5Zm2.82-3.93h1.37l-.69-4.6Z" style="fill:#263238"></path><path d="M380.09,320.59v-11.4h2.31v11.4Z" style="fill:#263238"></path><path d="M384.14,320.59v-11.4h3a6.74,6.74,0,0,1,2,.26,2.34,2.34,0,0,1,1.26.92,3.26,3.26,0,0,1,.45,1.83,5.83,5.83,0,0,1-.12,1.25,2.46,2.46,0,0,1-.43.94,2,2,0,0,1-.85.64l1.58,5.56h-2.38l-1.31-5.16h-.81v5.16Zm2.33-6.54h.67a1.73,1.73,0,0,0,.89-.19,1,1,0,0,0,.46-.55,3,3,0,0,0,.13-.92,2.14,2.14,0,0,0-.29-1.21,1.24,1.24,0,0,0-1.08-.41h-.78Z" style="fill:#263238"></path></g><g id="freepik--character-1--inject-2"><path d="M180.33,274.26s-3.57,52.2-3.57,53.87.05,8.85-.9,11.24-5.3,3.06-6.26,3.3-2.38-.95-2.38-.95-1.19.24-1.43-1.91-1.42-5.14-1.9-8.72,3.57-7.25,4.05-8.92a30.85,30.85,0,0,1,1.19-3.34L166.74,275Z" style="fill:#fff;stroke:#263238;stroke-miterlimit:10"></path><polyline points="167.22 341.72 168.03 334.49 167.29 333.01" style="fill:#fff;stroke:#263238;stroke-miterlimit:10"></polyline><path d="M113,441.52s-2.5,6.39-3.61,8.89-3.62,6.11-4.17,7.78-2.5,5-.83,6.39,19.44,0,19.44,0,2.78-.28,3.61-2.23,0-9.16,0-10.27-.28-8.89-.28-8.89Z" style="fill:#fff;stroke:#263238;stroke-miterlimit:10"></path><path d="M127.46,462.35a11,11,0,0,0,.37-3.72,11.52,11.52,0,0,1-4.81,2.06H104.25c-.53,1.47-.86,3,.16,3.89,1.66,1.39,19.44,0,19.44,0S126.63,464.3,127.46,462.35Z" style="fill:#fff;stroke:#263238;stroke-miterlimit:10"></path><path d="M164.86,441.52s2.5,6.39,3.61,8.89,3.61,6.11,4.17,7.78,2.5,5,.83,6.39-19.44,0-19.44,0-2.78-.28-3.61-2.23,0-9.16,0-10.27.27-8.89.27-8.89Z" style="fill:#fff;stroke:#263238;stroke-miterlimit:10"></path><path d="M150.42,462.35a11,11,0,0,1-.37-3.72,11.52,11.52,0,0,0,4.81,2.06h18.77c.53,1.47.86,3-.16,3.89-1.66,1.39-19.44,0-19.44,0S151.25,464.3,150.42,462.35Z" style="fill:#fff;stroke:#263238;stroke-miterlimit:10"></path><path d="M110.9,286.71l1.43,88.2a43.36,43.36,0,0,0-1.19,18.36c1.67,9.29,2.38,40.76,2.38,40.76s-2.38,1.67-2.38,3.34.24,6.19.24,6.19,5,2.39,8.34,2.86,10.49-.47,10.49-.47l.95-9.54-.23-8.1,3.57-70.8,1.91-37.43,3.57-.24,5,37.67,4,69.84.72,18.12a17.5,17.5,0,0,0,6.2,1.43c3.81.24,10.48-2.14,10.48-2.14s1-6.2,1.2-7.87-1.91-9.06-1.91-9.06l1.43-50.77-.72-11L162.39,286Z" style="fill:#263238;stroke:#263238;stroke-miterlimit:10"></path><path d="M133.31,189.21l-11.68,6,2.86,92.49h26.7l.71-89.15S137.84,188.5,133.31,189.21Z" style="fill:#92E3A9;stroke:#263238;stroke-miterlimit:10"></path><path d="M143.74,192.44s28.38,14.15,28.19,15.13S182.23,260,182.23,260l-.78,9.58-15.63.19-1.76-6.64,1.43,37.9-21.28-1s-1.76-46.5.78-71.7S143.74,192.44,143.74,192.44Z" style="fill:#bdbdbd;stroke:#263238;stroke-miterlimit:10"></path><path d="M183.6,266s-1,10.75-2,11.14S168.36,278,167,277s-2.34-10.16-1.76-11.13,16.61-.59,16.61-.59S183.6,264.48,183.6,266Z" style="fill:#bdbdbd;stroke:#263238;stroke-miterlimit:10"></path><line x1="164.06" y1="263.11" x2="161.13" y2="225.27" style="fill:#fff;stroke:#263238;stroke-miterlimit:10"></line><path d="M166.85,209.72A91.76,91.76,0,0,1,162.1,221" style="fill:none;stroke:#263238;stroke-miterlimit:10"></path><path d="M143.68,256.51c.13-10.1.51-20.22,1.31-28.2,2.54-25.21-1.25-35.87-1.25-35.87s3,1.38,7.25,3.35l4,14.4-5.34,3.16,3.91,7.81Z" style="fill:#bdbdbd;stroke:#263238;stroke-miterlimit:10"></path><path d="M126.81,171.54l-2.15,20.9s-.39,18.17,11.53,18.95,8.59-15.82,8.4-19.92,0-9.19,0-9.19Z" style="fill:#fff;stroke:#263238;stroke-miterlimit:10"></path><polyline points="133.06 183.92 144.56 196.25 145.11 186.39 133.06 183.92" style="fill:#263238;stroke:#263238;stroke-miterlimit:10"></polyline><path d="M153.89,149.94a11.41,11.41,0,0,0,2.27-6.19,8.86,8.86,0,0,0-6-8.47c-3.51-1.24-24.36-.41-28.28,1.66s-5.58,8.05-4.75,12.38.82,14,1.86,15.48,3.92,6.4,5.78,5.58,5.16-2.27,5.57-3.92.41-3.93.83-5,4.33-4.33,4.54-6.61-2.07-3.71-.21-4.95,7.64.41,10.53.83S153.89,149.94,153.89,149.94Z" style="fill:#263238;stroke:#263238;stroke-miterlimit:10"></path><path d="M124.17,167.9s-3.1-6.4-5.16-5.37-1.65,7,.41,9.91a6.55,6.55,0,0,0,5,2.89s4.55,7.23,6,8S144.93,190,147.2,190a6,6,0,0,0,5.37-3.3c1-2.07,3.39-16.52,3.39-19.62s-1-6.39-1-7.22,0-5-.21-6.61-1.45-6.6-1.65-7.22-2.89,2.06-5.37,1.86-14.24-3.1-15.07-2.69-4.75,4.54-4.33,5.78,4.95,3.72,4.95,4.54-6.4,5.37-6.4,5.37,1.86,4.13.83,5A28.79,28.79,0,0,1,124.17,167.9Z" style="fill:#fff;stroke:#263238;stroke-miterlimit:10"></path><polyline points="150.29 157.84 149.99 163.41 152.3 173.14 147.67 173.45" style="fill:none;stroke:#263238;stroke-miterlimit:10"></polyline><path d="M148.44,178.09s-2.94,1.24-7.57-2.78" style="fill:none;stroke:#263238;stroke-miterlimit:10"></path><path d="M141.79,163.72c0,1.11-.62,2-1.39,2s-1.39-.89-1.39-2,.62-2,1.39-2S141.79,162.61,141.79,163.72Z" style="fill:#263238"></path><path d="M154.62,162.48c0,1.11-.62,2-1.39,2s-1.39-.9-1.39-2,.62-2,1.39-2S154.62,161.37,154.62,162.48Z" style="fill:#263238"></path><path d="M136.08,160s1.85-1.86,6.8-1.55" style="fill:none;stroke:#263238;stroke-miterlimit:10"></path><path d="M151.53,157.53a3.72,3.72,0,0,1,2.78,0" style="fill:none;stroke:#263238;stroke-miterlimit:10"></path><path d="M91.12,275.51s3.57,52.2,3.57,53.87,0,8.85.9,11.23,5.3,3.07,6.25,3.31,2.39-.95,2.39-.95,1.19.24,1.43-1.91,1.42-5.14,1.89-8.72-3.56-7.25-4-8.92a30.85,30.85,0,0,0-1.19-3.34l2.38-43.86Z" style="fill:#fff;stroke:#263238;stroke-miterlimit:10"></path><polyline points="104.23 342.97 103.42 335.74 104.16 334.26" style="fill:#fff;stroke:#263238;stroke-miterlimit:10"></polyline><path d="M124.66,192.44s-34.58,15.83-34.39,16.81-.39,52-.39,52l.78,9.57,15.63.19,1.76-6.64.2,36.93,22.27-.59s1.76-46.5-.78-71.7S124.66,192.44,124.66,192.44Z" style="fill:#bdbdbd;stroke:#263238;stroke-miterlimit:10"></path><path d="M88.51,267.27s1,10.75,2,11.14,13.28.78,14.65-.2,2.35-10.16,1.76-11.13-16.61-.59-16.61-.59S88.51,265.71,88.51,267.27Z" style="fill:#bdbdbd;stroke:#263238;stroke-miterlimit:10"></path><line x1="108.05" y1="264.34" x2="107.27" y2="225.27" style="fill:#fff;stroke:#263238;stroke-miterlimit:10"></line><path d="M95.35,211.39s8.21,4.3,10.94,9.58" style="fill:none;stroke:#263238;stroke-miterlimit:10"></path><path d="M106.68,214.91s3.52,2.74,3.13,10.36" style="fill:none;stroke:#263238;stroke-miterlimit:10"></path><path d="M131.05,257.18c-.13-10.1-.51-20.22-1.31-28.2-2.54-25.21-5.08-36.54-5.08-36.54s-3,1.38-7.26,3.35L117.23,210l5.28,3.32-3.91,7.81Z" style="fill:#bdbdbd;stroke:#263238;stroke-miterlimit:10"></path></g></svg>
