<?xml version="1.0" standalone="no"?>
<!DOCTYPE svg PUBLIC "-//W3C//DTD SVG 20010904//EN"
 "http://www.w3.org/TR/2001/REC-SVG-20010904/DTD/svg10.dtd">
<svg version="1.0" xmlns="http://www.w3.org/2000/svg"
 width="706.000000pt" height="665.000000pt" viewBox="0 0 706.000000 665.000000"
 preserveAspectRatio="xMidYMid meet">

<g transform="translate(0.000000,665.000000) scale(0.100000,-0.100000)"
fill="#000000" stroke="none">
<path d="M3010 5896 c-20 -8 -114 -47 -210 -89 -153 -65 -429 -183 -1265 -539
-401 -170 -427 -182 -456 -213 -46 -46 -36 -65 51 -102 100 -42 127 -54 395
-168 127 -54 236 -102 242 -108 7 -5 9 -14 5 -21 -4 -6 -10 -47 -13 -91 -3
-44 -16 -125 -27 -180 -39 -188 -44 -255 -23 -337 22 -83 28 -68 -72 -174
-153 -162 -271 -330 -363 -521 -163 -334 -204 -629 -140 -1000 44 -250 184
-545 371 -778 138 -172 353 -369 535 -487 343 -224 721 -335 1272 -374 60 -4
85 -9 82 -17 -3 -7 -57 -54 -120 -105 -141 -115 -159 -146 -175 -293 -5 -56
-8 -104 -5 -107 7 -6 132 59 219 114 115 75 330 247 503 406 44 40 119 109
168 153 122 111 177 212 196 360 13 105 3 193 -26 211 -12 8 -89 35 -171 59
-198 57 -227 69 -445 179 -210 106 -433 248 -572 366 -51 43 -101 80 -111 82
-19 3 -21 0 -59 -82 -15 -30 -40 -79 -56 -109 -26 -45 -30 -64 -30 -125 0
-122 50 -184 338 -414 l133 -107 -39 -3 c-57 -4 -257 43 -402 95 -607 217
-1079 656 -1249 1160 -129 382 -111 723 54 1019 62 111 167 240 185 229 6 -4
8 -10 5 -15 -3 -5 -12 -83 -20 -172 -8 -90 -17 -186 -21 -214 -6 -46 -4 -53
15 -63 29 -16 207 -10 204 6 -7 34 -34 395 -30 399 5 5 118 -70 282 -185 55
-39 110 -71 121 -71 12 0 41 7 65 15 243 86 666 130 884 92 158 -28 278 -76
362 -143 23 -19 46 -34 52 -34 5 0 41 46 78 102 82 124 236 283 346 357 83 56
227 134 265 143 15 4 22 14 22 30 0 48 -100 367 -155 493 -19 44 -31 83 -27
86 4 4 198 89 432 189 234 100 428 187 432 193 12 18 10 23 -19 57 -28 33 -51
45 -283 142 -80 33 -164 69 -187 79 -24 11 -149 65 -279 120 -130 55 -259 111
-288 124 -28 12 -118 51 -201 85 -82 34 -170 71 -194 82 -24 11 -132 57 -240
103 -108 46 -218 92 -244 104 -56 24 -51 24 -97 7z"/>
<path d="M5055 3285 c-30 -15 -57 -56 -126 -183 l-35 -67 -118 -12 c-65 -6
-120 -14 -124 -17 -14 -15 16 -20 113 -18 61 0 105 -3 105 -9 0 -17 -77 -217
-93 -242 -20 -31 -141 -137 -156 -137 -30 0 5 121 52 183 43 56 48 98 15 121
-19 14 -24 14 -48 0 -14 -9 -59 -61 -100 -115 -40 -55 -75 -97 -78 -95 -11 11
22 119 50 160 24 38 28 49 18 61 -7 8 -23 15 -37 15 -26 0 -39 -23 -88 -165
-18 -53 -45 -104 -81 -151 -51 -68 -136 -138 -158 -131 -16 5 -19 61 -6 122 9
41 16 56 33 61 70 22 167 124 167 176 0 30 -30 64 -63 70 -66 13 -135 -43
-188 -151 -35 -72 -154 -221 -176 -221 -22 0 -15 57 17 129 42 97 56 155 44
188 -21 61 -78 36 -156 -66 -52 -68 -55 -62 -15 37 19 49 20 56 6 80 -9 17
-25 28 -41 30 -22 3 -34 -6 -70 -52 -24 -30 -63 -95 -88 -145 -39 -78 -60
-108 -60 -85 0 21 26 93 43 117 18 26 18 29 3 52 -33 50 -54 32 -97 -85 -29
-81 -48 -106 -100 -135 -45 -24 -52 -1 -24 79 13 38 29 74 35 80 15 15 12 43
-6 50 -53 20 -83 -3 -103 -81 -9 -33 -24 -53 -67 -88 -58 -47 -92 -59 -79 -27
4 9 9 33 12 52 7 44 22 74 62 124 18 23 31 50 31 67 0 32 -31 59 -60 52 -19
-5 -94 -94 -151 -178 -31 -46 -34 -48 -37 -25 -5 35 13 89 49 143 26 39 29 50
18 63 -7 8 -24 14 -38 12 -30 -3 -44 -29 -85 -151 -30 -88 -33 -139 -10 -161
28 -29 50 -18 87 42 19 31 47 68 62 82 l26 25 -10 -27 c-5 -14 -13 -53 -17
-87 -6 -58 -5 -61 24 -91 42 -42 71 -39 123 12 l42 41 26 -30 c26 -31 60 -53
82 -53 6 0 27 16 46 37 l35 36 21 -25 c46 -53 51 -49 132 111 66 131 107 193
119 180 2 -2 -9 -35 -24 -74 -37 -94 -47 -167 -25 -188 23 -23 36 -14 75 51
41 68 110 158 110 143 0 -7 -12 -40 -27 -74 -31 -71 -37 -167 -14 -210 18 -33
62 -52 89 -38 15 8 105 106 129 140 2 2 6 1 9 -2 4 -4 1 -13 -6 -22 -7 -8 -13
-33 -14 -54 -1 -45 26 -81 75 -101 52 -22 85 1 203 144 35 43 40 46 56 31 28
-26 49 -17 78 32 30 51 97 128 89 101 -3 -9 -11 -44 -17 -77 -12 -67 -5 -92
34 -123 36 -29 65 -22 113 27 49 51 52 45 28 -48 -34 -130 -8 -207 70 -207 26
0 61 36 151 155 128 170 177 246 164 259 -8 8 -17 4 -33 -19 -104 -142 -251
-315 -268 -315 -30 0 36 249 119 450 31 74 60 138 65 141 5 3 38 7 74 7 62 1
99 15 88 32 -3 5 -30 6 -59 3 -88 -9 -92 -4 -50 72 19 37 51 87 70 112 41 53
42 61 8 73 -32 13 -33 13 -69 -5z m-755 -451 c0 -28 -9 -43 -47 -81 -58 -55
-68 -41 -27 39 47 93 74 109 74 42z"/>
<path d="M2618 3243 c-56 -67 -145 -252 -198 -413 -66 -200 -71 -264 -27 -322
32 -41 88 -72 116 -63 23 7 130 129 180 204 38 57 53 51 32 -11 -6 -17 -8 -41
-5 -54 4 -13 2 -30 -3 -37 -33 -41 -18 -154 25 -188 50 -39 106 -16 138 58 30
69 7 85 -39 28 -70 -88 -75 -16 -13 198 46 159 107 303 151 362 15 19 25 42
23 52 -4 23 -53 47 -74 35 -8 -4 -71 -94 -139 -198 -135 -205 -269 -374 -296
-374 -9 0 -19 10 -23 23 -22 88 128 512 208 586 34 32 44 85 21 111 -22 25
-57 26 -77 3z"/>
<path d="M3439 3053 c-4 -58 -10 -79 -31 -115 -27 -46 -27 -68 1 -68 17 0 61
50 61 69 0 5 12 24 26 41 23 27 25 35 16 56 -9 18 -19 24 -42 24 -16 0 -30 -3
-31 -7z"/>
</g>
</svg>
