<svg width="246" height="53" viewBox="0 0 246 53" fill="none" xmlns="http://www.w3.org/2000/svg">
<rect width="246" height="53" rx="26.5" fill="url(#paint0_linear_1_6)"/>
<path d="M47.1449 21.3636C47.0384 20.464 46.6063 19.7656 45.8487 19.2685C45.0911 18.7713 44.1619 18.5227 43.0611 18.5227C42.2562 18.5227 41.5518 18.6529 40.9482 18.9134C40.3504 19.1738 39.8828 19.5318 39.5455 19.9876C39.214 20.4433 39.0483 20.9612 39.0483 21.5412C39.0483 22.0265 39.1637 22.4438 39.3945 22.793C39.6313 23.1362 39.9331 23.4233 40.3001 23.6541C40.667 23.879 41.0517 24.0655 41.4542 24.2134C41.8567 24.3555 42.2266 24.4709 42.5639 24.5597L44.4105 25.0568C44.884 25.1811 45.4107 25.3527 45.9908 25.5717C46.5767 25.7907 47.136 26.0896 47.6687 26.4684C48.2073 26.8413 48.6512 27.3207 49.0004 27.9066C49.3496 28.4925 49.5241 29.2116 49.5241 30.0639C49.5241 31.0464 49.2667 31.9342 48.7518 32.7273C48.2428 33.5204 47.497 34.1507 46.5146 34.6183C45.538 35.0858 44.3513 35.3196 42.9545 35.3196C41.6525 35.3196 40.525 35.1095 39.5721 34.6893C38.6251 34.2691 37.8794 33.6831 37.3349 32.9315C36.7963 32.1798 36.4915 31.3068 36.4205 30.3125H38.6932C38.7524 30.9991 38.9832 31.5672 39.3857 32.017C39.794 32.4609 40.3089 32.7924 40.9304 33.0114C41.5578 33.2244 42.2325 33.331 42.9545 33.331C43.795 33.331 44.5496 33.1948 45.2184 32.9226C45.8872 32.6444 46.4169 32.2597 46.8075 31.7685C47.1982 31.2713 47.3935 30.6913 47.3935 30.0284C47.3935 29.4247 47.2248 28.9335 46.8874 28.5547C46.5501 28.1759 46.1062 27.8681 45.5558 27.6314C45.0053 27.3946 44.4105 27.1875 43.7713 27.0099L41.5341 26.3707C40.1136 25.9624 38.9891 25.3794 38.1605 24.6218C37.3319 23.8642 36.9176 22.8729 36.9176 21.6477C36.9176 20.6297 37.1928 19.742 37.7433 18.9844C38.2996 18.2209 39.0453 17.629 39.9805 17.2088C40.9215 16.7827 41.9721 16.5696 43.1321 16.5696C44.304 16.5696 45.3456 16.7797 46.2571 17.1999C47.1686 17.6142 47.8906 18.1824 48.4233 18.9045C48.9619 19.6265 49.246 20.4463 49.2756 21.3636H47.1449ZM58.5773 35.2841C57.2634 35.2841 56.13 34.9941 55.1771 34.4141C54.2301 33.8281 53.4992 33.0114 52.9843 31.9638C52.4753 30.9103 52.2208 29.6851 52.2208 28.2884C52.2208 26.8916 52.4753 25.6605 52.9843 24.5952C53.4992 23.5239 54.2153 22.6894 55.1327 22.0916C56.056 21.4879 57.1332 21.1861 58.3643 21.1861C59.0745 21.1861 59.7758 21.3045 60.4683 21.5412C61.1608 21.7779 61.7911 22.1626 62.3593 22.6953C62.9275 23.2221 63.3802 23.9205 63.7176 24.7905C64.055 25.6605 64.2236 26.7318 64.2236 28.0043V28.892H53.7123V27.081H62.093C62.093 26.3116 61.9391 25.625 61.6313 25.0213C61.3295 24.4176 60.8974 23.9412 60.3351 23.592C59.7788 23.2428 59.1218 23.0682 58.3643 23.0682C57.5297 23.0682 56.8077 23.2753 56.1981 23.6896C55.5944 24.098 55.1298 24.6307 54.8042 25.2876C54.4787 25.9446 54.316 26.6489 54.316 27.4006V28.608C54.316 29.6378 54.4935 30.5108 54.8486 31.2269C55.2097 31.9371 55.7098 32.4787 56.349 32.8516C56.9882 33.2185 57.731 33.402 58.5773 33.402C59.1278 33.402 59.6249 33.325 60.0688 33.1712C60.5186 33.0114 60.9063 32.7746 61.2318 32.4609C61.5573 32.1413 61.8089 31.7448 61.9864 31.2713L64.0106 31.8395C63.7975 32.526 63.4394 33.1297 62.9363 33.6506C62.4333 34.1655 61.8118 34.5679 61.072 34.858C60.3322 35.142 59.5006 35.2841 58.5773 35.2841ZM69.5059 26.7969V35H67.4108V21.3636H69.4349V23.4943H69.6125C69.9321 22.8018 70.4174 22.2455 71.0684 21.8253C71.7195 21.3991 72.5599 21.1861 73.5898 21.1861C74.5131 21.1861 75.3209 21.3755 76.0134 21.7543C76.7059 22.1271 77.2445 22.6953 77.6292 23.4588C78.0139 24.2164 78.2062 25.1752 78.2062 26.3352V35H76.1111V26.4773C76.1111 25.406 75.8329 24.5715 75.2765 23.9737C74.7202 23.37 73.9567 23.0682 72.9861 23.0682C72.3173 23.0682 71.7195 23.2132 71.1927 23.5032C70.6719 23.7932 70.2606 24.2164 69.9587 24.7727C69.6569 25.3291 69.5059 26.0038 69.5059 26.7969ZM87.1839 35.2841C86.0476 35.2841 85.0444 34.997 84.1744 34.4229C83.3043 33.8429 82.6237 33.0262 82.1325 31.9727C81.6412 30.9132 81.3956 29.6615 81.3956 28.2173C81.3956 26.785 81.6412 25.5421 82.1325 24.4886C82.6237 23.4351 83.3073 22.6213 84.1832 22.0472C85.0592 21.4731 86.0713 21.1861 87.2195 21.1861C88.1072 21.1861 88.8086 21.334 89.3235 21.63C89.8443 21.92 90.2409 22.2514 90.5131 22.6243C90.7913 22.9912 91.0073 23.2931 91.1612 23.5298H91.3388V16.8182H93.4339V35H91.4098V32.9048H91.1612C91.0073 33.1534 90.7884 33.4671 90.5043 33.8459C90.2202 34.2187 89.8147 34.5531 89.288 34.8491C88.7612 35.1391 88.0599 35.2841 87.1839 35.2841ZM87.468 33.402C88.3085 33.402 89.0187 33.183 89.5987 32.745C90.1787 32.3011 90.6197 31.6886 90.9215 30.9073C91.2234 30.1201 91.3743 29.2116 91.3743 28.1818C91.3743 27.1638 91.2263 26.2731 90.9304 25.5096C90.6345 24.7402 90.1965 24.1424 89.6165 23.7163C89.0365 23.2842 88.3203 23.0682 87.468 23.0682C86.5803 23.0682 85.8404 23.296 85.2486 23.7518C84.6626 24.2016 84.2217 24.8142 83.9258 25.5895C83.6358 26.3589 83.4908 27.223 83.4908 28.1818C83.4908 29.1525 83.6387 30.0343 83.9347 30.8274C84.2365 31.6146 84.6804 32.242 85.2663 32.7095C85.8582 33.1712 86.5921 33.402 87.468 33.402ZM104.877 16.8182H107.505L113.684 31.9105H113.897L120.076 16.8182H122.704V35H120.645V21.1861H120.467L114.785 35H112.797L107.115 21.1861H106.937V35H104.877V16.8182ZM132.552 35.2841C131.238 35.2841 130.105 34.9941 129.152 34.4141C128.205 33.8281 127.474 33.0114 126.959 31.9638C126.45 30.9103 126.195 29.6851 126.195 28.2884C126.195 26.8916 126.45 25.6605 126.959 24.5952C127.474 23.5239 128.19 22.6894 129.107 22.0916C130.031 21.4879 131.108 21.1861 132.339 21.1861C133.049 21.1861 133.75 21.3045 134.443 21.5412C135.135 21.7779 135.766 22.1626 136.334 22.6953C136.902 23.2221 137.355 23.9205 137.692 24.7905C138.03 25.6605 138.198 26.7318 138.198 28.0043V28.892H127.687V27.081H136.068C136.068 26.3116 135.914 25.625 135.606 25.0213C135.304 24.4176 134.872 23.9412 134.31 23.592C133.753 23.2428 133.096 23.0682 132.339 23.0682C131.504 23.0682 130.782 23.2753 130.173 23.6896C129.569 24.098 129.104 24.6307 128.779 25.2876C128.453 25.9446 128.291 26.6489 128.291 27.4006V28.608C128.291 29.6378 128.468 30.5108 128.823 31.2269C129.184 31.9371 129.684 32.4787 130.324 32.8516C130.963 33.2185 131.706 33.402 132.552 33.402C133.102 33.402 133.6 33.325 134.043 33.1712C134.493 33.0114 134.881 32.7746 135.206 32.4609C135.532 32.1413 135.783 31.7448 135.961 31.2713L137.985 31.8395C137.772 32.526 137.414 33.1297 136.911 33.6506C136.408 34.1655 135.786 34.5679 135.047 34.858C134.307 35.142 133.475 35.2841 132.552 35.2841ZM151.044 24.4176L149.162 24.9503C149.044 24.6366 148.869 24.3318 148.639 24.0359C148.414 23.734 148.106 23.4854 147.715 23.2901C147.325 23.0948 146.825 22.9972 146.215 22.9972C145.38 22.9972 144.685 23.1895 144.129 23.5742C143.578 23.953 143.303 24.4354 143.303 25.0213C143.303 25.5421 143.492 25.9535 143.871 26.2553C144.25 26.5572 144.842 26.8087 145.647 27.0099L147.671 27.5071C148.89 27.803 149.799 28.2558 150.396 28.8654C150.994 29.4691 151.293 30.2474 151.293 31.2003C151.293 31.9815 151.068 32.6799 150.618 33.2955C150.174 33.911 149.553 34.3963 148.754 34.7514C147.955 35.1065 147.026 35.2841 145.966 35.2841C144.575 35.2841 143.424 34.9822 142.513 34.3786C141.601 33.7749 141.024 32.893 140.782 31.733L142.77 31.2358C142.96 31.9697 143.318 32.5201 143.845 32.8871C144.377 33.254 145.073 33.4375 145.931 33.4375C146.907 33.4375 147.683 33.2304 148.257 32.8161C148.837 32.3958 149.127 31.8928 149.127 31.3068C149.127 30.8333 148.961 30.4368 148.63 30.1172C148.298 29.7917 147.789 29.549 147.103 29.3892L144.83 28.8565C143.581 28.5606 142.664 28.1019 142.078 27.4805C141.498 26.8531 141.208 26.0689 141.208 25.1278C141.208 24.3584 141.424 23.6778 141.856 23.0859C142.294 22.4941 142.889 22.0295 143.64 21.6921C144.398 21.3548 145.256 21.1861 146.215 21.1861C147.564 21.1861 148.624 21.482 149.393 22.0739C150.169 22.6657 150.719 23.447 151.044 24.4176ZM164.106 24.4176L162.224 24.9503C162.106 24.6366 161.931 24.3318 161.7 24.0359C161.475 23.734 161.167 23.4854 160.777 23.2901C160.386 23.0948 159.886 22.9972 159.276 22.9972C158.442 22.9972 157.747 23.1895 157.19 23.5742C156.64 23.953 156.365 24.4354 156.365 25.0213C156.365 25.5421 156.554 25.9535 156.933 26.2553C157.311 26.5572 157.903 26.8087 158.708 27.0099L160.732 27.5071C161.952 27.803 162.86 28.2558 163.458 28.8654C164.056 29.4691 164.355 30.2474 164.355 31.2003C164.355 31.9815 164.13 32.6799 163.68 33.2955C163.236 33.911 162.615 34.3963 161.816 34.7514C161.017 35.1065 160.087 35.2841 159.028 35.2841C157.637 35.2841 156.486 34.9822 155.574 34.3786C154.663 33.7749 154.086 32.893 153.843 31.733L155.832 31.2358C156.021 31.9697 156.379 32.5201 156.906 32.8871C157.439 33.254 158.134 33.4375 158.992 33.4375C159.969 33.4375 160.744 33.2304 161.318 32.8161C161.898 32.3958 162.188 31.8928 162.188 31.3068C162.188 30.8333 162.023 30.4368 161.691 30.1172C161.36 29.7917 160.851 29.549 160.164 29.3892L157.892 28.8565C156.643 28.5606 155.725 28.1019 155.139 27.4805C154.559 26.8531 154.269 26.0689 154.269 25.1278C154.269 24.3584 154.485 23.6778 154.917 23.0859C155.355 22.4941 155.95 22.0295 156.702 21.6921C157.459 21.3548 158.318 21.1861 159.276 21.1861C160.626 21.1861 161.685 21.482 162.455 22.0739C163.23 22.6657 163.78 23.447 164.106 24.4176ZM171.521 35.3196C170.657 35.3196 169.873 35.1568 169.169 34.8313C168.464 34.4999 167.905 34.0234 167.491 33.402C167.076 32.7746 166.869 32.017 166.869 31.1293C166.869 30.348 167.023 29.7147 167.331 29.2294C167.639 28.7382 168.05 28.3535 168.565 28.0753C169.08 27.7971 169.648 27.59 170.269 27.4538C170.897 27.3118 171.527 27.1993 172.16 27.1165C172.989 27.0099 173.661 26.93 174.176 26.8768C174.697 26.8176 175.075 26.7199 175.312 26.5838C175.555 26.4477 175.676 26.2109 175.676 25.8736V25.8026C175.676 24.9266 175.436 24.246 174.957 23.7607C174.483 23.2753 173.764 23.0327 172.8 23.0327C171.799 23.0327 171.015 23.2517 170.447 23.6896C169.879 24.1276 169.479 24.5952 169.248 25.0923L167.26 24.3821C167.615 23.5535 168.088 22.9084 168.68 22.4467C169.278 21.9792 169.929 21.6536 170.633 21.4702C171.344 21.2808 172.042 21.1861 172.729 21.1861C173.167 21.1861 173.67 21.2393 174.238 21.3459C174.812 21.4465 175.365 21.6566 175.898 21.9762C176.437 22.2958 176.883 22.7782 177.239 23.4233C177.594 24.0684 177.771 24.9325 177.771 26.0156V35H175.676V33.1534H175.57C175.427 33.4493 175.191 33.766 174.859 34.1033C174.528 34.4407 174.087 34.7277 173.536 34.9645C172.986 35.2012 172.314 35.3196 171.521 35.3196ZM171.841 33.4375C172.669 33.4375 173.368 33.2747 173.936 32.9492C174.51 32.6237 174.942 32.2035 175.232 31.6886C175.528 31.1737 175.676 30.6321 175.676 30.0639V28.1463C175.587 28.2528 175.392 28.3505 175.09 28.4393C174.794 28.5221 174.451 28.5961 174.06 28.6612C173.676 28.7204 173.3 28.7737 172.933 28.821C172.572 28.8625 172.279 28.898 172.054 28.9276C171.509 28.9986 171 29.114 170.527 29.2738C170.059 29.4277 169.681 29.6615 169.391 29.9751C169.106 30.2829 168.964 30.7031 168.964 31.2358C168.964 31.9638 169.234 32.5142 169.772 32.8871C170.317 33.254 171.006 33.4375 171.841 33.4375ZM187.1 40.3977C186.088 40.3977 185.218 40.2675 184.49 40.0071C183.762 39.7526 183.155 39.4152 182.67 38.995C182.19 38.5807 181.808 38.1368 181.524 37.6634L183.193 36.4915C183.383 36.7401 183.622 37.0241 183.912 37.3438C184.202 37.6693 184.599 37.9504 185.102 38.1871C185.611 38.4298 186.277 38.5511 187.1 38.5511C188.2 38.5511 189.109 38.2848 189.825 37.7521C190.541 37.2195 190.899 36.3849 190.899 35.2486V32.4787H190.722C190.568 32.7273 190.349 33.035 190.065 33.402C189.787 33.763 189.384 34.0856 188.857 34.3697C188.337 34.6478 187.632 34.7869 186.744 34.7869C185.644 34.7869 184.655 34.5265 183.779 34.0057C182.909 33.4848 182.22 32.7273 181.711 31.733C181.208 30.7386 180.956 29.5312 180.956 28.1108C180.956 26.714 181.202 25.4978 181.693 24.462C182.184 23.4203 182.868 22.6154 183.744 22.0472C184.62 21.4731 185.632 21.1861 186.78 21.1861C187.668 21.1861 188.372 21.334 188.893 21.63C189.42 21.92 189.822 22.2514 190.1 22.6243C190.384 22.9912 190.603 23.2931 190.757 23.5298H190.97V21.3636H192.994V35.3906C192.994 36.5625 192.728 37.5154 192.195 38.2493C191.669 38.9891 190.959 39.5307 190.065 39.8739C189.177 40.2231 188.189 40.3977 187.1 40.3977ZM187.029 32.9048C187.869 32.9048 188.579 32.7125 189.159 32.3278C189.739 31.9431 190.18 31.3897 190.482 30.6676C190.784 29.9455 190.935 29.0814 190.935 28.0753C190.935 27.0928 190.787 26.2257 190.491 25.4741C190.195 24.7224 189.757 24.1335 189.177 23.7074C188.597 23.2812 187.881 23.0682 187.029 23.0682C186.141 23.0682 185.401 23.2931 184.809 23.7429C184.223 24.1927 183.782 24.7964 183.486 25.554C183.196 26.3116 183.051 27.152 183.051 28.0753C183.051 29.0223 183.199 29.8597 183.495 30.5877C183.797 31.3098 184.241 31.878 184.827 32.2923C185.419 32.7006 186.153 32.9048 187.029 32.9048ZM202.547 35.2841C201.233 35.2841 200.1 34.9941 199.147 34.4141C198.2 33.8281 197.469 33.0114 196.954 31.9638C196.445 30.9103 196.191 29.6851 196.191 28.2884C196.191 26.8916 196.445 25.6605 196.954 24.5952C197.469 23.5239 198.185 22.6894 199.102 22.0916C200.026 21.4879 201.103 21.1861 202.334 21.1861C203.044 21.1861 203.746 21.3045 204.438 21.5412C205.131 21.7779 205.761 22.1626 206.329 22.6953C206.897 23.2221 207.35 23.9205 207.687 24.7905C208.025 25.6605 208.193 26.7318 208.193 28.0043V28.892H197.682V27.081H206.063C206.063 26.3116 205.909 25.625 205.601 25.0213C205.299 24.4176 204.867 23.9412 204.305 23.592C203.749 23.2428 203.092 23.0682 202.334 23.0682C201.499 23.0682 200.777 23.2753 200.168 23.6896C199.564 24.098 199.099 24.6307 198.774 25.2876C198.448 25.9446 198.286 26.6489 198.286 27.4006V28.608C198.286 29.6378 198.463 30.5108 198.818 31.2269C199.179 31.9371 199.68 32.4787 200.319 32.8516C200.958 33.2185 201.701 33.402 202.547 33.402C203.097 33.402 203.595 33.325 204.039 33.1712C204.488 33.0114 204.876 32.7746 205.202 32.4609C205.527 32.1413 205.779 31.7448 205.956 31.2713L207.98 31.8395C207.767 32.526 207.409 33.1297 206.906 33.6506C206.403 34.1655 205.782 34.5679 205.042 34.858C204.302 35.142 203.47 35.2841 202.547 35.2841Z" fill="white"/>
<defs>
<linearGradient id="paint0_linear_1_6" x1="0" y1="26.5" x2="246" y2="26.5" gradientUnits="userSpaceOnUse">
<stop stop-color="#2864FF"/>
<stop offset="0.0001" stop-color="#2AFFD9"/>
<stop offset="1" stop-color="#0094FF"/>
</linearGradient>
</defs>
</svg>
